<?xml version="1.0" standalone="no"?>
<!DOCTYPE svg PUBLIC "-//W3C//DTD SVG 20010904//EN"
 "http://www.w3.org/TR/2001/REC-SVG-20010904/DTD/svg10.dtd">
<svg version="1.0" xmlns="http://www.w3.org/2000/svg"
 width="3840.000000pt" height="2160.000000pt" viewBox="0 0 3840.000000 2160.000000"
 preserveAspectRatio="xMidYMid meet">

<g transform="translate(0.000000,2160.000000) scale(0.100000,-0.100000)"
fill="#000000" stroke="none">
<path d="M12625 20809 c-2528 -160 -4613 -1487 -5850 -3724 -1053 -1902 -1347
-4402 -784 -6660 287 -1149 809 -2227 1497 -3090 359 -451 793 -878 1235
-1219 548 -421 1160 -757 1821 -1001 629 -232 1322 -376 2046 -425 201 -14
12292 -13 12490 0 1431 99 2722 568 3803 1381 454 342 913 789 1276 1242 473
591 877 1293 1168 2031 332 841 521 1692 605 2711 21 253 17 1184 -5 1445 -59
682 -159 1248 -323 1830 -738 2612 -2563 4524 -4974 5210 -462 131 -856 202
-1455 262 -142 14 -12330 21 -12550 7z m12321 -2629 c872 -69 1627 -334 2288
-803 755 -536 1347 -1343 1702 -2319 205 -562 331 -1184 374 -1843 14 -209 14
-738 0 -940 -117 -1712 -780 -3123 -1885 -4012 -134 -108 -409 -295 -550 -375
-554 -313 -1139 -494 -1835 -565 -166 -17 -474 -18 -6200 -18 -6408 0 -6099
-2 -6450 46 -888 123 -1682 486 -2332 1066 -793 707 -1350 1743 -1587 2953
-131 665 -164 1408 -95 2105 217 2189 1385 3852 3132 4459 358 124 790 213
1187 245 161 12 12090 14 12251 1z"/>
<path d="M32485 3891 c-137 -36 -224 -139 -233 -277 -7 -103 16 -163 87 -235
66 -66 130 -91 227 -91 116 1 212 60 263 164 27 53 31 72 31 143 0 67 -4 90
-26 132 -30 61 -89 118 -152 145 -50 22 -149 32 -197 19z m176 -65 c51 -24 99
-73 123 -126 25 -55 27 -157 4 -211 -81 -189 -342 -207 -445 -32 -35 60 -43
164 -18 229 29 76 86 129 165 155 38 13 131 5 171 -15z"/>
<path d="M32440 3596 c0 -130 3 -175 13 -178 30 -12 37 4 37 78 l0 74 33 0
c30 0 36 -6 77 -74 42 -71 65 -91 89 -77 7 5 3 19 -12 41 -13 19 -34 52 -46
73 l-23 37 31 11 c33 12 61 53 61 89 0 37 -28 77 -61 89 -18 6 -70 11 -115 11
l-84 0 0 -174z m186 113 c8 -6 14 -24 14 -40 0 -39 -33 -59 -97 -59 l-53 0 0
53 c0 30 3 56 6 60 10 10 114 -1 130 -14z"/>
<path d="M6887 3849 c-614 -54 -1105 -451 -1317 -1065 -168 -486 -134 -1077
87 -1517 224 -448 584 -730 1063 -834 80 -17 168 -18 1530 -18 l1445 0 104 23
c491 110 867 425 1077 902 79 181 137 417 150 610 3 47 7 107 9 134 5 73 -12
291 -31 403 -36 218 -119 446 -229 629 -253 425 -673 689 -1165 733 -118 11
-2603 11 -2723 0z m2689 -560 c441 -43 766 -359 872 -849 21 -100 24 -140 25
-310 0 -171 -3 -209 -25 -310 -106 -488 -426 -802 -866 -849 -51 -6 -629 -8
-1387 -7 -1401 3 -1342 1 -1495 54 -439 154 -701 609 -677 1176 20 457 218
816 547 990 100 53 233 93 345 105 108 11 2546 11 2661 0z"/>
<path d="M11379 3850 c0 -5 -1 -777 -1 -1715 0 -938 1 -1711 1 -1718 1 -11 61
-13 309 -13 l307 0 5 1446 5 1445 1125 2 c704 1 1146 -2 1180 -8 244 -44 418
-285 380 -526 -26 -165 -141 -307 -300 -370 -42 -17 -115 -18 -992 -23 l-948
-5 1005 -977 1005 -978 406 0 405 0 -55 52 c-239 228 -1376 1334 -1376 1339 0
4 127 9 283 11 249 4 291 7 359 26 197 54 356 148 490 291 185 197 278 433
278 706 0 522 -392 959 -908 1014 -123 13 -2962 14 -2963 1z"/>
<path d="M21340 3849 c-657 -58 -1177 -517 -1353 -1194 -53 -204 -61 -274 -61
-525 0 -251 8 -321 61 -525 140 -541 511 -957 997 -1120 44 -15 118 -36 165
-48 85 -21 100 -21 1366 -24 l1280 -4 176 273 c97 150 176 274 174 275 -1 2
-600 3 -1331 4 -731 1 -1369 5 -1417 10 -228 22 -427 117 -585 278 -378 387
-428 1148 -108 1630 150 226 413 385 671 407 39 3 79 8 90 9 11 2 556 4 1211
4 l1192 1 167 273 c93 149 170 275 172 280 6 10 -2748 6 -2867 -4z"/>
<path d="M24652 2133 l3 -1728 1315 -3 1315 -2 175 276 c96 152 176 280 178
283 1 4 -543 7 -1210 7 l-1213 0 -3 1447 -2 1447 -280 0 -280 0 2 -1727z"/>
<path d="M29093 3850 c-698 -58 -1234 -558 -1389 -1298 -89 -426 -34 -910 146
-1277 226 -460 620 -764 1098 -846 109 -18 171 -19 1352 -19 l1238 0 176 273
175 272 -102 2 c-56 2 -682 4 -1392 6 -1268 3 -1291 4 -1375 24 -47 12 -116
34 -155 49 -149 60 -325 205 -418 346 -78 118 -154 306 -180 446 l-6 32 1487
0 1487 0 176 278 175 277 -1663 3 -1663 2 6 28 c44 183 113 338 204 460 166
224 393 353 670 382 41 4 613 9 1270 9 938 1 1197 4 1206 14 13 14 334 535
334 542 0 8 -2758 3 -2857 -5z"/>
<path d="M17711 3834 c-59 -21 -108 -53 -152 -100 -30 -32 -2070 -3278 -2085
-3318 -4 -10 63 -12 332 -12 l336 1 309 495 310 495 659 1 c563 0 662 2 674
15 15 16 336 536 336 544 0 3 -296 6 -659 7 l-658 3 356 562 c196 309 359 562
363 563 3 0 374 -586 824 -1302 449 -717 829 -1321 844 -1343 l28 -40 336 0
c185 -1 336 0 336 1 0 1 -468 746 -1040 1656 -803 1275 -1052 1664 -1090 1700
-66 62 -137 88 -238 88 -43 -1 -97 -8 -121 -16z"/>
</g>
</svg>
