<?xml version="1.0" standalone="no"?>
<!DOCTYPE svg PUBLIC "-//W3C//DTD SVG 20010904//EN"
 "http://www.w3.org/TR/2001/REC-SVG-20010904/DTD/svg10.dtd">
<svg version="1.0" xmlns="http://www.w3.org/2000/svg"
 width="225.000000pt" height="225.000000pt" viewBox="0 0 225.000000 225.000000"
 preserveAspectRatio="xMidYMid meet">

<g transform="translate(0.000000,225.000000) scale(0.100000,-0.100000)"
fill="#4682B4" stroke="none">
<path d="M909 1721 c-69 -22 -142 -71 -166 -111 -10 -17 -39 -40 -69 -55 -64
-31 -104 -86 -112 -152 -4 -39 -13 -56 -44 -87 -73 -73 -87 -205 -34 -309 15
-27 26 -66 26 -86 0 -55 27 -136 57 -171 33 -40 92 -70 140 -71 34 0 41 -5 68
-47 58 -90 181 -135 315 -116 l65 9 3 38 3 37 65 0 c49 0 64 -3 64 -14 0 -22
40 -46 75 -46 68 0 101 88 49 129 -39 31 -80 27 -115 -10 -25 -27 -33 -30 -81
-27 l-53 3 -5 550 -5 550 -95 2 c-69 2 -110 -3 -151 -16z m211 -121 l0 -100
-50 0 c-40 0 -55 5 -82 29 -22 19 -39 26 -51 22 -17 -6 -17 -8 3 -34 31 -39
72 -57 130 -57 l50 0 0 -109 0 -109 -41 14 c-50 18 -97 7 -148 -34 -54 -43
-75 -52 -123 -52 -41 0 -45 2 -56 34 -13 37 -40 59 -84 70 -23 5 -28 3 -28
-13 0 -11 11 -23 29 -30 53 -22 62 -81 20 -127 -18 -20 -17 -54 1 -54 10 0 60
59 60 71 0 5 24 9 54 9 68 0 97 11 149 55 46 39 88 45 137 20 l30 -16 0 -174
c0 -153 -2 -174 -15 -168 -24 9 -102 -25 -125 -55 l-21 -26 22 -8 c17 -7 25
-4 32 8 12 21 71 46 91 38 13 -5 16 -27 16 -124 l0 -119 -47 -7 c-63 -9 -157
10 -204 41 -22 14 -51 44 -66 66 -26 39 -26 43 -15 97 21 98 89 173 172 187
30 5 40 11 40 26 0 36 -87 16 -155 -36 -25 -19 -50 -35 -57 -35 -16 0 -58 41
-58 57 0 7 -11 13 -24 13 -23 0 -24 -2 -15 -30 10 -28 61 -80 79 -80 4 0 0
-23 -11 -50 -10 -28 -19 -59 -19 -70 0 -16 -7 -20 -30 -20 -69 0 -131 60 -150
144 -6 27 -8 62 -5 76 4 20 -1 38 -19 65 -53 78 -58 171 -12 250 13 22 36 47
50 55 21 11 26 21 26 54 0 53 32 116 73 144 18 12 36 22 39 22 3 0 8 -19 12
-42 14 -88 67 -135 161 -145 51 -5 55 -4 55 16 0 17 -6 21 -32 21 -18 0 -51 9
-74 19 -67 31 -94 122 -54 186 28 46 104 93 175 108 11 3 53 5 93 6 l72 1 0
-100z m264 -956 c22 -9 20 -51 -3 -64 -25 -13 -48 -4 -56 21 -11 35 20 58 59
43z"/>
<path d="M1484 1728 c-22 -10 -44 -47 -44 -74 0 -9 14 -29 30 -46 33 -32 39
-72 14 -82 -9 -3 -52 -6 -97 -6 -71 0 -84 3 -95 20 -26 42 -102 16 -102 -34 0
-45 61 -73 92 -42 10 9 48 15 117 18 93 3 105 6 122 27 11 13 19 34 19 48 0
15 12 34 30 50 72 60 -1 163 -86 121z m64 -40 c32 -32 -8 -80 -48 -58 -34 18
-19 70 20 70 9 0 21 -5 28 -12z"/>
<path d="M1675 1655 c-34 -33 -32 -70 6 -106 31 -29 31 -30 28 -112 -5 -110
-11 -117 -107 -117 -58 0 -77 4 -87 17 -17 23 -74 21 -91 -2 -42 -58 35 -116
88 -68 15 13 38 17 98 18 112 0 123 12 130 144 5 94 7 101 33 121 37 29 38 80
1 109 -35 28 -69 26 -99 -4z m79 -21 c21 -21 20 -37 -4 -59 -18 -17 -21 -17
-45 -1 -14 9 -25 23 -25 31 0 17 27 45 45 45 7 0 21 -7 29 -16z"/>
<path d="M1593 1220 c-12 -5 -27 -18 -33 -29 -14 -26 -24 -26 -59 0 -23 17
-33 19 -50 10 -46 -25 -49 -80 -5 -100 26 -11 54 -5 67 16 12 19 27 16 48 -11
25 -32 62 -40 99 -21 53 27 53 103 0 130 -33 17 -36 17 -67 5z m61 -49 c23
-25 6 -61 -29 -61 -33 0 -49 30 -29 58 19 27 36 28 58 3z"/>
<path d="M1683 1068 c-13 -6 -25 -19 -28 -29 -9 -29 -115 -27 -155 2 -27 21
-30 21 -54 6 -46 -31 -42 -90 8 -103 25 -6 66 10 66 26 0 6 29 10 64 10 55 0
66 -3 71 -19 3 -10 19 -25 36 -31 40 -17 95 7 105 45 9 38 -13 82 -48 94 -36
13 -36 13 -65 -1z m67 -43 c26 -32 -13 -81 -47 -59 -35 22 -23 74 17 74 10 0
23 -7 30 -15z"/>
<path d="M1210 840 c-24 -24 -26 -53 -4 -74 21 -22 60 -20 84 4 15 15 33 20
73 20 49 0 59 -5 169 -80 115 -79 117 -81 120 -122 7 -94 126 -103 144 -11 5
26 1 37 -21 59 -22 22 -33 26 -64 21 -35 -4 -49 2 -160 78 -114 77 -125 83
-188 90 -37 4 -77 13 -88 21 -27 19 -41 18 -65 -6z m529 -220 c10 -5 22 -17
25 -26 7 -19 -19 -54 -40 -54 -17 0 -44 28 -44 45 0 13 26 45 36 45 3 0 13 -4
23 -10z"/>
</g>
</svg>
